<svg version="1.1" id="icons" xmlns="http://www.w3.org/2000/svg" x="0" y="0" viewBox="0 0 64 64" width="300" height="300" style="enable-background:new 0 0 64 64" xml:space="preserve"><style>.st0{display:none}.st1,.st2,.st3{display:inline;fill:#f1f2f2}.st2,.st3{fill:#d1d3d4}.st3{fill:none;stroke:#414042;stroke-miterlimit:10}.st4{fill:#fff}.st4,.st6{display:inline}.st7{fill:none;stroke:#414042;stroke-miterlimit:10}.st11,.st12,.st8{display:inline;fill:#EC4899}.st11,.st12{fill:#EC4899}.st12{fill:none;stroke:#414042;stroke-linecap:round;stroke-miterlimit:10}.st13{fill:#fff}.st14{fill:#e6e7e8}.st15{fill:#bcbec0}.st16{display:inline;fill:#f7bc5d}.st17,.st18,.st19{display:inline;fill:#414042}.st18,.st19{fill:#e6e7e8}.st19{fill:#bcbec0}.st20{fill:#D81B60}.st21{fill:#f1f2f2}.st23{fill:#EC4899}.st24{display:inline;fill:none;stroke:#414042;stroke-miterlimit:10;stroke-dasharray:1}.st26{fill:#414042}.st27{display:inline;fill:#86e7d4}.st28{fill:#d1d3d4}.st29{display:inline;fill:#f9cd86}</style><g id="XMLID_379_"><path id="XMLID_791_" class="st7" d="M31.7 19.8v30"/><path id="XMLID_792_" class="st7" d="m20.4 29.7 11.3 11.6"/><path id="XMLID_790_" class="st7" d="m28.6 29.1-.2 8.7"/><path id="XMLID_800_" class="st7" d="m26.8 36.3-8.2-.2"/><path id="XMLID_806_" class="st7" d="M43.1 33.4 31.7 44.9"/><path id="XMLID_804_" class="st7" d="m35 41.5-.2-8.7"/><path id="XMLID_802_" class="st7" d="m44.8 39.8-8.2.2"/><circle id="XMLID_801_" class="st23" cx="20.4" cy="29.7" r="2.4"/><circle id="XMLID_807_" class="st23" cx="18.9" cy="36.3" r="1.8"/><circle id="XMLID_831_" class="st23" cx="22.5" cy="33.6" r="1"/><circle id="XMLID_832_" class="st23" cx="26.5" cy="34.7" r="1"/><circle id="XMLID_835_" class="st23" cx="38.8" cy="36.7" r="1"/><circle id="XMLID_836_" class="st23" cx="35.6" cy="39.8" r="1"/><circle id="XMLID_808_" class="st23" cx="28.4" cy="29.7" r="1.9"/><circle id="XMLID_809_" class="st23" cx="35" cy="32.8" r="1.9"/><circle id="XMLID_810_" class="st23" cx="42.9" cy="33.7" r="2.1"/><circle id="XMLID_811_" class="st23" cx="44.4" cy="39.4" r="1.7"/><path id="XMLID_840_" class="st7" d="M18.9 50.2h26.5"/><path id="XMLID_839_" class="st7" d="M14.3 52.5h21.9"/><path id="XMLID_842_" class="st7" d="M49.7 52.5H37.2"/><path id="XMLID_378_" class="st20" d="M40.8 16.8c0-2.9-2.4-5.3-5.3-5.3-1.5 0-2.8.6-3.8 1.6-1-1-2.3-1.6-3.8-1.6-2.9 0-5.3 2.4-5.3 5.3 0 1.4.6 2.7 1.5 3.7l7.6 7.6 7.8-7.7c.1-.1.3-.4.3-.4.6-.9 1-2 1-3.2z"/></g></svg>